<svg version="1.1" id="Layer_1" xmlns="http://www.w3.org/2000/svg" xmlns:xlink="http://www.w3.org/1999/xlink" x="0px" y="0px"
	 width="100%" viewBox="0 0 500 500" enable-background="new 0 0 500 500" xml:space="preserve">
<path fill="#000000" opacity="1.000000" stroke="none" 
	d="
M332.000000,501.000000 
	C221.333359,501.000000 111.166718,501.000000 1.000059,501.000000 
	C1.000039,334.333405 1.000039,167.666794 1.000020,1.000149 
	C167.666565,1.000099 334.333130,1.000099 500.999756,1.000050 
	C500.999847,167.666519 500.999847,334.333038 500.999939,500.999786 
	C444.833344,501.000000 388.666656,501.000000 332.000000,501.000000 
M109.973518,357.782043 
	C110.025681,358.859894 110.077843,359.937714 110.013817,361.922699 
	C110.389908,372.943237 110.765999,383.963806 110.969711,395.750183 
	C109.486801,399.285156 110.125916,401.181213 114.495323,401.159790 
	C134.147949,401.063629 153.801407,401.142365 173.454147,401.060028 
	C174.669510,401.054932 175.881363,400.209656 177.180695,399.262970 
	C177.206451,398.919159 177.132660,398.598267 177.714874,397.797577 
	C177.807800,379.111572 177.911667,360.425629 177.949783,341.739502 
	C177.951172,341.059875 177.306580,340.378967 177.102737,339.385773 
	C177.102737,339.385773 177.022736,339.052582 176.928757,338.119720 
	C176.916580,329.456848 176.791245,320.792084 176.934433,312.131775 
	C177.021072,306.892731 177.595551,301.663116 177.786346,296.423309 
	C177.830368,295.214264 177.201126,293.980713 176.881699,292.758423 
	C176.079559,293.127869 175.277420,293.497314 173.764954,294.044495 
	C164.768616,302.572815 155.790070,311.119995 146.768204,319.621185 
	C142.458557,323.682129 137.933670,327.522461 133.744446,331.701508 
	C128.009430,337.422485 122.501137,343.370758 116.324158,349.298981 
	C115.814880,349.541840 115.305603,349.784698 114.286224,350.170074 
	C113.869804,350.713623 113.453392,351.257202 112.789986,352.165833 
	C112.521606,352.304901 112.311226,352.504974 111.998245,353.259094 
	C112.009285,353.431580 112.020332,353.604065 111.296104,353.984283 
	C110.907265,354.984497 110.518425,355.984680 109.973518,357.782043 
M176.990570,107.975281 
	C176.990570,107.975281 177.077606,107.966957 176.674896,107.180717 
	C157.448654,107.174225 138.222412,107.167740 118.115128,107.018608 
	C117.282631,107.008438 116.450134,106.990166 115.617630,106.989403 
	C110.098770,106.984367 109.269341,107.968094 109.985214,113.412506 
	C110.390137,116.491974 110.947678,119.588768 110.950470,122.678200 
	C111.009010,187.456024 111.003685,252.233932 110.975479,317.011810 
	C110.974556,319.131042 110.479362,321.248566 110.452408,323.369934 
	C110.438576,324.459198 110.950821,325.555145 111.225327,326.648071 
	C112.282158,326.091766 113.338997,325.535492 114.722328,324.896759 
	C114.934105,324.752899 115.014282,324.555573 115.306686,323.771271 
	C115.902199,323.175201 116.497711,322.579102 117.725655,321.784210 
	C127.985519,311.891602 138.246429,302.000122 148.503677,292.104797 
	C149.579819,291.066650 150.632751,290.004456 151.699432,288.956421 
	C159.128220,281.657410 166.557770,274.359192 174.623489,267.003235 
	C175.101776,266.674744 175.580078,266.346252 175.999878,266.002167 
	C175.999878,266.002167 176.009857,266.061859 176.719681,265.558533 
	C176.819977,263.912445 177.006454,262.266449 177.007935,260.620270 
	C177.042892,221.677078 177.057922,182.733871 177.112518,143.510559 
	C177.112518,143.510559 176.960464,143.272583 177.724380,142.786469 
	C177.812317,131.646927 177.913208,120.507408 177.945175,109.367699 
	C177.946594,108.875412 177.318939,108.381325 176.990570,107.975281 
M326.627747,108.574982 
	C315.394867,121.145874 304.180939,133.733810 292.921936,146.281265 
	C286.135437,153.844391 279.284485,161.349747 272.451202,168.870804 
	C269.104095,172.554825 265.992249,176.505630 262.308899,179.818695 
	C256.809967,184.764847 256.530426,185.000977 261.148376,190.781708 
	C270.775299,202.832626 280.458679,214.838562 290.157166,226.832031 
	C291.964539,229.067078 293.950958,231.157333 295.979767,233.456070 
	C309.247406,218.919250 322.059021,204.913055 334.833099,190.872711 
	C341.042023,184.048325 347.179474,177.158951 353.351501,170.301010 
	C365.290466,157.035294 377.270050,143.805862 389.154419,130.491470 
	C395.193451,123.725731 401.062164,116.807983 407.700470,109.654694 
	C408.091980,108.905655 408.483459,108.156624 409.089691,106.996750 
	C381.949402,106.996750 355.417999,106.989639 328.886658,107.039627 
	C328.253113,107.040817 327.620789,107.680687 326.627747,108.574982 
M230.409698,282.091736 
	C238.782486,292.486176 247.060822,302.958557 255.554123,313.253571 
	C264.372437,323.942566 273.497742,334.378418 282.307709,345.074158 
	C292.150391,357.023682 301.781281,369.147552 311.522247,381.181091 
	C314.426147,384.768463 317.618530,388.145935 320.273163,391.905884 
	C324.242157,397.527435 328.100037,402.854187 336.305237,400.092560 
	C337.353027,399.739899 338.621674,400.025909 339.787567,400.044342 
	C360.573090,400.372864 381.358215,400.732971 402.144592,400.992584 
	C404.066528,401.016571 405.996307,400.407532 408.745361,399.957794 
	C407.394043,398.122131 406.862152,397.329803 406.261200,396.593872 
	C399.167725,387.907166 392.060669,379.231506 384.963623,370.547699 
	C375.647980,359.149323 366.361298,347.727203 357.018829,336.350861 
	C348.423615,325.884369 339.700836,315.522003 331.161865,305.010101 
	C320.842865,292.306824 310.733582,279.432983 300.392914,266.747589 
	C291.291290,255.582260 281.895782,244.656174 272.816040,233.473434 
	C264.683197,223.456879 256.885254,213.168701 248.775208,203.133163 
	C245.217407,198.730682 243.284683,199.065201 239.959732,203.581589 
	C237.515472,206.901672 234.849243,210.074722 232.099335,213.150040 
	C226.436768,219.482651 220.650574,225.704666 214.918976,231.975586 
	C214.026154,232.952408 213.182144,233.975204 212.265350,234.928452 
	C209.310303,238.001083 205.557083,240.617294 203.544235,244.211746 
	C200.535797,249.584076 207.548950,251.393967 208.840591,255.429062 
	C208.984985,255.880203 209.388351,256.257111 209.701477,256.644287 
	C216.428391,264.961792 223.159561,273.275848 230.409698,282.091736 
z"/>
<path fill="#232122" opacity="1.000000" stroke="none" 
	d="
M230.149811,281.841156 
	C223.159561,273.275848 216.428391,264.961792 209.701477,256.644287 
	C209.388351,256.257111 208.984985,255.880203 208.840591,255.429062 
	C207.548950,251.393967 200.535797,249.584076 203.544235,244.211746 
	C205.557083,240.617294 209.310303,238.001083 212.265350,234.928452 
	C213.182144,233.975204 214.026154,232.952408 214.918976,231.975586 
	C220.650574,225.704666 226.436768,219.482651 232.099335,213.150040 
	C234.849243,210.074722 237.515472,206.901672 239.959732,203.581589 
	C243.284683,199.065201 245.217407,198.730682 248.775208,203.133163 
	C256.885254,213.168701 264.683197,223.456879 272.816040,233.473434 
	C281.895782,244.656174 291.291290,255.582260 300.392914,266.747589 
	C310.733582,279.432983 320.842865,292.306824 331.161865,305.010101 
	C339.700836,315.522003 348.423615,325.884369 357.018829,336.350861 
	C366.361298,347.727203 375.647980,359.149323 384.963623,370.547699 
	C392.060669,379.231506 399.167725,387.907166 406.261200,396.593872 
	C406.862152,397.329803 407.394043,398.122131 408.745361,399.957794 
	C405.996307,400.407532 404.066528,401.016571 402.144592,400.992584 
	C381.358215,400.732971 360.573090,400.372864 339.787567,400.044342 
	C338.621674,400.025909 337.353027,399.739899 336.305237,400.092560 
	C328.100037,402.854187 324.242157,397.527435 320.273163,391.905884 
	C317.618530,388.145935 314.426147,384.768463 311.522247,381.181091 
	C301.781281,369.147552 292.150391,357.023682 282.307709,345.074158 
	C273.497742,334.378418 264.372437,323.942566 255.554123,313.253571 
	C247.060822,302.958557 238.782486,292.486176 230.149811,281.841156 
z"/>
<path fill="#232022" opacity="1.000000" stroke="none" 
	d="
M114.962845,324.304810 
	C115.014282,324.555573 114.934105,324.752899 114.171616,324.745056 
	C113.124092,323.090271 112.193939,321.587494 112.192749,320.084015 
	C112.138298,251.255951 112.165054,182.427841 112.182274,113.599716 
	C112.182678,111.974388 112.182320,110.349060 112.182320,108.479774 
	C114.769173,108.271355 116.883476,108.101006 119.460617,108.011719 
	C138.974838,108.050835 158.026230,108.008896 177.077606,107.966957 
	C177.077606,107.966957 176.990570,107.975281 176.827774,108.384033 
	C176.763474,120.286049 176.861969,131.779312 176.960449,143.272583 
	C176.960464,143.272583 177.112518,143.510559 176.722183,143.897369 
	C176.223633,145.103897 176.021072,145.923599 176.020767,146.743347 
	C176.006149,186.516190 176.008972,226.289017 176.009857,266.061859 
	C176.009857,266.061859 175.999878,266.002167 175.708893,265.866455 
	C174.940979,266.174072 174.464035,266.617401 173.987091,267.060699 
	C166.557770,274.359192 159.128220,281.657410 151.699432,288.956421 
	C150.632751,290.004456 149.579819,291.066650 148.503677,292.104797 
	C138.246429,302.000122 127.985519,311.891602 117.093658,322.002808 
	C115.962051,322.915863 115.462448,323.610321 114.962845,324.304810 
z"/>
<path fill="#242223" opacity="1.000000" stroke="none" 
	d="
M407.007843,109.958946 
	C401.062164,116.807983 395.193451,123.725731 389.154419,130.491470 
	C377.270050,143.805862 365.290466,157.035294 353.351501,170.301010 
	C347.179474,177.158951 341.042023,184.048325 334.833099,190.872711 
	C322.059021,204.913055 309.247406,218.919250 295.979767,233.456070 
	C293.950958,231.157333 291.964539,229.067078 290.157166,226.832031 
	C280.458679,214.838562 270.775299,202.832626 261.148376,190.781708 
	C256.530426,185.000977 256.809967,184.764847 262.308899,179.818695 
	C265.992249,176.505630 269.104095,172.554825 272.451202,168.870804 
	C279.284485,161.349747 286.135437,153.844391 292.921936,146.281265 
	C304.180939,133.733810 315.394867,121.145874 327.272003,108.376022 
	C353.023285,108.148689 378.130432,108.093300 403.237122,108.171516 
	C404.495880,108.175446 405.751007,109.336617 407.007843,109.958946 
z"/>
<path fill="#232122" opacity="1.000000" stroke="none" 
	d="
M177.022736,339.052582 
	C177.022736,339.052582 177.102737,339.385773 176.868134,340.005920 
	C176.617462,345.270630 176.559982,349.915527 176.593048,354.559723 
	C176.696823,369.140015 176.834656,383.720093 176.959305,398.300232 
	C177.132660,398.598267 177.206451,398.919159 176.668671,399.415588 
	C155.047531,399.568207 133.938431,399.568207 112.650505,399.568207 
	C112.401184,397.901459 112.184753,396.454559 112.035095,394.542542 
	C112.066841,383.051422 112.031807,372.025452 112.104614,360.727997 
	C112.141403,359.304413 112.070351,358.152252 112.057755,356.600006 
	C112.087936,355.392120 112.059654,354.584351 112.031372,353.776581 
	C112.020332,353.604065 112.009285,353.431580 112.263580,352.886719 
	C112.556839,352.176208 112.726196,351.938324 113.036972,351.800751 
	C113.453392,351.257202 113.869804,350.713623 114.816086,350.026093 
	C115.862526,349.661957 116.379097,349.441772 116.895668,349.221619 
	C122.501137,343.370758 128.009430,337.422485 133.744446,331.701508 
	C137.933670,327.522461 142.458557,323.682129 146.768204,319.621185 
	C155.790070,311.119995 164.768616,302.572815 174.547516,293.871399 
	C175.604767,295.249023 176.110458,296.798737 176.117508,298.350647 
	C176.172241,310.390717 176.098602,322.431335 176.159241,334.471313 
	C176.166931,335.999817 176.721527,337.525574 177.022736,339.052582 
z"/>
<path fill="#AFADAF" opacity="1.000000" stroke="none" 
	d="
M118.997780,107.930664 
	C116.883476,108.101006 114.769173,108.271355 112.182320,108.479774 
	C112.182320,110.349060 112.182678,111.974388 112.182274,113.599716 
	C112.165054,182.427841 112.138298,251.255951 112.192749,320.084015 
	C112.193939,321.587494 113.124092,323.090271 114.008362,324.786255 
	C113.338997,325.535492 112.282158,326.091766 111.225327,326.648071 
	C110.950821,325.555145 110.438576,324.459198 110.452408,323.369934 
	C110.479362,321.248566 110.974556,319.131042 110.975479,317.011810 
	C111.003685,252.233932 111.009010,187.456024 110.950470,122.678200 
	C110.947678,119.588768 110.390137,116.491974 109.985214,113.412506 
	C109.269341,107.968094 110.098770,106.984367 115.617630,106.989403 
	C116.450134,106.990166 117.282631,107.008438 118.555786,107.282288 
	C118.996445,107.545959 118.997780,107.930664 118.997780,107.930664 
z"/>
<path fill="#817F81" opacity="1.000000" stroke="none" 
	d="
M176.364777,265.810181 
	C176.008972,226.289017 176.006149,186.516190 176.020767,146.743347 
	C176.021072,145.923599 176.223633,145.103897 176.704224,144.037430 
	C177.057922,182.733871 177.042892,221.677078 177.007935,260.620270 
	C177.006454,262.266449 176.819977,263.912445 176.364777,265.810181 
z"/>
<path fill="#A5A4A6" opacity="1.000000" stroke="none" 
	d="
M407.354156,109.806824 
	C405.751007,109.336617 404.495880,108.175446 403.237122,108.171516 
	C378.130432,108.093300 353.023285,108.148689 327.452087,108.099869 
	C327.620789,107.680687 328.253113,107.040817 328.886658,107.039627 
	C355.417999,106.989639 381.949402,106.996750 409.089691,106.996750 
	C408.483459,108.156624 408.091980,108.905655 407.354156,109.806824 
z"/>
<path fill="#A0A0A1" opacity="1.000000" stroke="none" 
	d="
M111.968315,395.007660 
	C112.184753,396.454559 112.401184,397.901459 112.650505,399.568207 
	C133.938431,399.568207 155.047531,399.568207 176.625732,399.661743 
	C175.881363,400.209656 174.669510,401.054932 173.454147,401.060028 
	C153.801407,401.142365 134.147949,401.063629 114.495323,401.159790 
	C110.125916,401.181213 109.486801,399.285156 111.262436,395.373779 
	C111.555168,394.997406 111.968315,395.007660 111.968315,395.007660 
z"/>
<path fill="#A0A0A1" opacity="1.000000" stroke="none" 
	d="
M176.975739,338.586151 
	C176.721527,337.525574 176.166931,335.999817 176.159241,334.471313 
	C176.098602,322.431335 176.172241,310.390717 176.117508,298.350647 
	C176.110458,296.798737 175.604767,295.249023 174.902679,293.782532 
	C175.277420,293.497314 176.079559,293.127869 176.881699,292.758423 
	C177.201126,293.980713 177.830368,295.214264 177.786346,296.423309 
	C177.595551,301.663116 177.021072,306.892731 176.934433,312.131775 
	C176.791245,320.792084 176.916580,329.456848 176.975739,338.586151 
z"/>
<path fill="#FFFFFF" opacity="1.000000" stroke="none" 
	d="
M177.337097,398.048889 
	C176.834656,383.720093 176.696823,369.140015 176.593048,354.559723 
	C176.559982,349.915527 176.617462,345.270630 176.798279,340.162354 
	C177.306580,340.378967 177.951172,341.059875 177.949783,341.739502 
	C177.911667,360.425629 177.807800,379.111572 177.337097,398.048889 
z"/>
<path fill="#ABABAC" opacity="1.000000" stroke="none" 
	d="
M119.460617,108.011719 
	C118.997780,107.930664 118.996445,107.545959 118.996307,107.353607 
	C138.222412,107.167740 157.448654,107.174225 176.876251,107.573837 
	C158.026230,108.008896 138.974838,108.050835 119.460617,108.011719 
z"/>
<path fill="#B2B0B2" opacity="1.000000" stroke="none" 
	d="
M112.035095,394.542542 
	C111.968315,395.007660 111.555168,394.997406 111.348633,394.990875 
	C110.765999,383.963806 110.389908,372.943237 110.382858,361.454712 
	C111.166855,360.990997 111.581810,360.995239 111.996765,360.999451 
	C112.031807,372.025452 112.066841,383.051422 112.035095,394.542542 
z"/>
<path fill="#FFFFFF" opacity="1.000000" stroke="none" 
	d="
M177.342407,143.029526 
	C176.861969,131.779312 176.763474,120.286049 176.824646,108.340424 
	C177.318939,108.381325 177.946594,108.875412 177.945175,109.367699 
	C177.913208,120.507408 177.812317,131.646927 177.342407,143.029526 
z"/>
<path fill="#A0A0A1" opacity="1.000000" stroke="none" 
	d="
M112.104614,360.728027 
	C111.581810,360.995239 111.166855,360.990997 110.440948,361.001160 
	C110.077843,359.937714 110.025681,358.859894 110.363022,357.396484 
	C111.168114,357.007355 111.583710,357.003723 111.999298,357.000122 
	C112.070351,358.152252 112.141403,359.304413 112.104614,360.728027 
z"/>
<path fill="#B2B0B2" opacity="1.000000" stroke="none" 
	d="
M112.057755,356.600006 
	C111.583710,357.003723 111.168114,357.007355 110.441055,356.997925 
	C110.518425,355.984680 110.907265,354.984497 111.663742,353.880432 
	C112.059654,354.584351 112.087936,355.392120 112.057755,356.600006 
z"/>
<path fill="#AFADAF" opacity="1.000000" stroke="none" 
	d="
M115.134766,324.038025 
	C115.462448,323.610321 115.962051,322.915863 116.777451,322.102234 
	C116.497711,322.579102 115.902199,323.175201 115.134766,324.038025 
z"/>
<path fill="#817F81" opacity="1.000000" stroke="none" 
	d="
M174.305298,267.031982 
	C174.464035,266.617401 174.940979,266.174072 175.738159,265.874268 
	C175.580078,266.346252 175.101776,266.674744 174.305298,267.031982 
z"/>
<path fill="#A0A0A1" opacity="1.000000" stroke="none" 
	d="
M116.609909,349.260315 
	C116.379097,349.441772 115.862526,349.661957 115.071136,349.954834 
	C115.305603,349.784698 115.814880,349.541840 116.609909,349.260315 
z"/>
<path fill="#A0A0A1" opacity="1.000000" stroke="none" 
	d="
M112.913483,351.983276 
	C112.726196,351.938324 112.556839,352.176208 112.343880,352.640198 
	C112.311226,352.504974 112.521606,352.304901 112.913483,351.983276 
z"/>
</svg>